<svg version="1.1" xmlns="http://www.w3.org/2000/svg" xmlns:xlink="http://www.w3.org/1999/xlink" width="1754" height="1241"><g fill="none" fill-rule="nonzero" stroke="none" stroke-width="none" stroke-linecap="none" stroke-linejoin="miter" stroke-miterlimit="10" stroke-dasharray="" stroke-dashoffset="0" font-family="none" font-weight="none" font-size="none" text-anchor="none" style="mix-blend-mode: normal"><g><text x="1079.5" y="526.5" fill="#000000" stroke="none" stroke-width="1" stroke-linecap="butt" font-family="Montserrat" font-weight="bold" font-size="60" text-anchor="middle"><tspan x="1079.5" dy="0">#Open Infrastructure Orbit </tspan><tspan x="1079.5" dy="72">@35c3</tspan></text><path d="M367.5,844.5c0,-6.62742 5.37258,-12 12,-12c6.62742,0 12,5.37258 12,12c0,6.62742 -5.37258,12 -12,12c-6.62742,0 -12,-5.37258 -12,-12z" fill="#000000" stroke="none" stroke-width="1" stroke-linecap="butt"/><path d="M767.5,844.5c0,-6.62742 5.37258,-12 12,-12c6.62742,0 12,5.37258 12,12c0,6.62742 -5.37258,12 -12,12c-6.62742,0 -12,-5.37258 -12,-12z" fill="#000000" stroke="none" stroke-width="1" stroke-linecap="butt"/><path d="M767.5,1044.5c0,-6.62742 5.37258,-12 12,-12c6.62742,0 12,5.37258 12,12c0,6.62742 -5.37258,12 -12,12c-6.62742,0 -12,-5.37258 -12,-12z" fill="#000000" stroke="none" stroke-width="1" stroke-linecap="butt"/><path d="M967.5,344.5c0,-6.62742 5.37258,-12 12,-12c6.62742,0 12,5.37258 12,12c0,6.62742 -5.37258,12 -12,12c-6.62742,0 -12,-5.37258 -12,-12z" fill="#000000" stroke="none" stroke-width="1" stroke-linecap="butt"/><path d="M967.5,244.5c0,-6.62742 5.37258,-12 12,-12c6.62742,0 12,5.37258 12,12c0,6.62742 -5.37258,12 -12,12c-6.62742,0 -12,-5.37258 -12,-12z" fill="#000000" stroke="none" stroke-width="1" stroke-linecap="butt"/><path d="M967.5,344.5c0,-6.62742 5.37258,-12 12,-12c6.62742,0 12,5.37258 12,12c0,6.62742 -5.37258,12 -12,12c-6.62742,0 -12,-5.37258 -12,-12z" fill="#000000" stroke="none" stroke-width="1" stroke-linecap="butt"/><path d="M1567.5,744.5c0,-6.62742 5.37258,-12 12,-12c6.62742,0 12,5.37258 12,12c0,6.62742 -5.37258,12 -12,12c-6.62742,0 -12,-5.37258 -12,-12z" fill="#000000" stroke="none" stroke-width="1" stroke-linecap="butt"/><path d="M779.5,1044.5l0,-200" fill="none" stroke="#000000" stroke-width="6" stroke-linecap="round"/><path d="M695.5,844.5l-80,40" fill="none" stroke="#000000" stroke-width="6" stroke-linecap="round"/><path d="M683.5,844.5c0,-6.62742 5.37258,-12 12,-12c6.62742,0 12,5.37258 12,12c0,6.62742 -5.37258,12 -12,12c-6.62742,0 -12,-5.37258 -12,-12z" fill="#000000" stroke="none" stroke-width="1" stroke-linecap="butt"/><path d="M603.5,844.5c0,-6.62742 5.37258,-12 12,-12c6.62742,0 12,5.37258 12,12c0,6.62742 -5.37258,12 -12,12c-6.62742,0 -12,-5.37258 -12,-12z" fill="#000000" stroke="none" stroke-width="1" stroke-linecap="butt"/><path d="M779.5,844.5h-84" fill="none" stroke="#000000" stroke-width="6" stroke-linecap="round"/><path d="M615.5,844.5h-436" fill="none" stroke="#000000" stroke-width="6" stroke-linecap="round"/><path d="M179.5,457.5l-40,-80" fill="none" stroke="#000000" stroke-width="6" stroke-linecap="round"/><path d="M167.5,457.5c0,-6.62742 5.37258,-12 12,-12c6.62742,0 12,5.37258 12,12c0,6.62742 -5.37258,12 -12,12c-6.62742,0 -12,-5.37258 -12,-12z" fill="#000000" stroke="none" stroke-width="1" stroke-linecap="butt"/><path d="M167.5,377.5c0,-6.62742 5.37258,-12 12,-12c6.62742,0 12,5.37258 12,12c0,6.62742 -5.37258,12 -12,12c-6.62742,0 -12,-5.37258 -12,-12z" fill="#000000" stroke="none" stroke-width="1" stroke-linecap="butt"/><path d="M179.5,844.5v-387" fill="none" stroke="#000000" stroke-width="6" stroke-linecap="round"/><path d="M179.5,377.5v-133" fill="none" stroke="#000000" stroke-width="6" stroke-linecap="round"/><path d="M563.5,204.5v80" fill="none" stroke="#000000" stroke-width="6" stroke-linecap="round"/><path d="M591.5,204.5v80" fill="none" stroke="#000000" stroke-width="6" stroke-linecap="round"/><path d="M179.5,244.5h384" fill="none" stroke="#000000" stroke-width="6" stroke-linecap="round"/><path d="M591.5,244.5h388" fill="none" stroke="#000000" stroke-width="6" stroke-linecap="round"/><path d="M979.5,244.5l0,100" fill="none" stroke="#000000" stroke-width="6" stroke-linecap="round"/><path d="M728.5,364.5v-40h80v40z" fill="none" stroke="#000000" stroke-width="6" stroke-linecap="round"/><path d="M979.5,344.5h-500" fill="none" stroke="#000000" stroke-width="6" stroke-linecap="round"/><path d="M459.5,517.5v-80h40v80z" fill="none" stroke="#000000" stroke-width="6" stroke-linecap="round"/><path d="M479.5,344.5v93" fill="none" stroke="#000000" stroke-width="6" stroke-linecap="round"/><path d="M479.5,517.5v227" fill="none" stroke="#000000" stroke-width="6" stroke-linecap="round"/><path d="M608.5,744.5c0,-22.09139 17.90861,-40 40,-40c22.09139,0 40,17.90861 40,40c0,22.09139 -17.90861,40 -40,40c-22.09139,0 -40,-17.90861 -40,-40z" fill="none" stroke="#000000" stroke-width="6" stroke-linecap="round"/><path d="M608.5,744.5h80" fill="none" stroke="#000000" stroke-width="6" stroke-linecap="round"/><path d="M479.5,744.5h129" fill="none" stroke="#000000" stroke-width="6" stroke-linecap="round"/><path d="M688.5,744.5h891" fill="none" stroke="#000000" stroke-width="6" stroke-linecap="round"/><path d="M1539.5,920.5c0,-22.09139 17.90861,-40 40,-40c22.09139,0 40,17.90861 40,40c0,22.09139 -17.90861,40 -40,40c-22.09139,0 -40,-17.90861 -40,-40z" fill="none" stroke="#000000" stroke-width="6" stroke-linecap="round"/><path d="M1607.78,948.78l-56.56,-56.56" fill="none" stroke="#000000" stroke-width="6" stroke-linecap="round"/><path d="M1607.78,892.22l-56.56,56.56" fill="none" stroke="#000000" stroke-width="6" stroke-linecap="round"/><path d="M1579.5,744.5v136" fill="none" stroke="#000000" stroke-width="6" stroke-linecap="round"/><path d="M1579.5,960.5v84" fill="none" stroke="#000000" stroke-width="6" stroke-linecap="round"/><path d="M1378.5,1084.5v-80" fill="none" stroke="#000000" stroke-width="6" stroke-linecap="round"/><path d="M1350.5,1084.5v-80" fill="none" stroke="#000000" stroke-width="6" stroke-linecap="round"/><path d="M1579.5,1044.5h-201" fill="none" stroke="#000000" stroke-width="6" stroke-linecap="round"/><path d="M1350.5,1044.5h-571" fill="none" stroke="#000000" stroke-width="6" stroke-linecap="round"/><path d="M167.5,732.5c0,-6.62742 5.37258,-12 12,-12c6.62742,0 12,5.37258 12,12c0,6.62742 -5.37258,12 -12,12c-6.62742,0 -12,-5.37258 -12,-12z" fill="#000000" stroke="none" stroke-width="1" stroke-linecap="butt"/><path d="M179.5,732.5h-70" fill="none" stroke="#000000" stroke-width="6" stroke-linecap="round"/><path d="M85.5,732.5c0,-6.62742 5.37258,-12 12,-12c6.62742,0 12,5.37258 12,12c0,6.62742 -5.37258,12 -12,12c-6.62742,0 -12,-5.37258 -12,-12z" fill="none" stroke="#000000" stroke-width="6" stroke-linecap="round"/><path d="M281.5,244.5c0,-6.62742 5.37258,-12 12,-12c6.62742,0 12,5.37258 12,12c0,6.62742 -5.37258,12 -12,12c-6.62742,0 -12,-5.37258 -12,-12z" fill="#000000" stroke="none" stroke-width="1" stroke-linecap="butt"/><path d="M293.5,244.5v-64" fill="none" stroke="#000000" stroke-width="6" stroke-linecap="round"/><path d="M281.5,168.5c0,-6.62742 5.37258,-12 12,-12c6.62742,0 12,5.37258 12,12c0,6.62742 -5.37258,12 -12,12c-6.62742,0 -12,-5.37258 -12,-12z" fill="none" stroke="#000000" stroke-width="6" stroke-linecap="round"/><path d="M467.5,621.5c0,-6.62742 5.37258,-12 12,-12c6.62742,0 12,5.37258 12,12c0,6.62742 -5.37258,12 -12,12c-6.62742,0 -12,-5.37258 -12,-12z" fill="#000000" stroke="none" stroke-width="1" stroke-linecap="butt"/><path d="M479.5,621.5h50v56" fill="none" stroke="#000000" stroke-width="6" stroke-linecap="round"/><path d="M517.5,689.5c0,-6.62742 5.37258,-12 12,-12c6.62742,0 12,5.37258 12,12c0,6.62742 -5.37258,12 -12,12c-6.62742,0 -12,-5.37258 -12,-12z" fill="none" stroke="#000000" stroke-width="6" stroke-linecap="round"/><path d="M1406.5,744.5c0,-6.62742 5.37258,-12 12,-12c6.62742,0 12,5.37258 12,12c0,6.62742 -5.37258,12 -12,12c-6.62742,0 -12,-5.37258 -12,-12z" fill="#000000" stroke="none" stroke-width="1" stroke-linecap="butt"/><path d="M1418.5,744.5v-75" fill="none" stroke="#000000" stroke-width="6" stroke-linecap="round"/><path d="M1406.5,657.5c0,-6.62742 5.37258,-12 12,-12c6.62742,0 12,5.37258 12,12c0,6.62742 -5.37258,12 -12,12c-6.62742,0 -12,-5.37258 -12,-12z" fill="none" stroke="#000000" stroke-width="6" stroke-linecap="round"/><path d="M1293.5,744.5c0,-6.62742 5.37258,-12 12,-12c6.62742,0 12,5.37258 12,12c0,6.62742 -5.37258,12 -12,12c-6.62742,0 -12,-5.37258 -12,-12z" fill="#000000" stroke="none" stroke-width="1" stroke-linecap="butt"/><path d="M1305.5,744.5v-55h-59" fill="none" stroke="#000000" stroke-width="6" stroke-linecap="round"/><path d="M1222.5,689.5c0,-6.62742 5.37258,-12 12,-12c6.62742,0 12,5.37258 12,12c0,6.62742 -5.37258,12 -12,12c-6.62742,0 -12,-5.37258 -12,-12z" fill="none" stroke="#000000" stroke-width="6" stroke-linecap="round"/><path d="M379.5,934.5c0,0 20,0 20,10c0,10 -20,10 -20,10c0,0 20,0 20,10c0,10 -20,10 -20,10c0,0 20,0 20,10c0,10 -20,10 -20,10c0,0 20,0 20,10c0,10 -20,10 -20,10" fill="none" stroke="#000000" stroke-width="6" stroke-linecap="round"/><path d="M379.5,1044.5v-30" fill="none" stroke="#000000" stroke-width="6" stroke-linecap="round"/><path d="M379.5,934.5v-90" fill="none" stroke="#000000" stroke-width="6" stroke-linecap="round"/><path d="M510.5,1064.5v-40h80v40z" fill="none" stroke="#000000" stroke-width="6" stroke-linecap="round"/><path d="M779.5,1044.5h-400" fill="none" stroke="#000000" stroke-width="6" stroke-linecap="round"/><path d="M1579.5,244.5l0,100" fill="none" stroke="#000000" stroke-width="6" stroke-linecap="round"/><path d="M1567.5,275.5c0,-6.62742 5.37258,-12 12,-12c6.62742,0 12,5.37258 12,12c0,6.62742 -5.37258,12 -12,12c-6.62742,0 -12,-5.37258 -12,-12z" fill="#000000" stroke="none" stroke-width="1" stroke-linecap="butt"/><path d="M1579.5,275.5l65,0" fill="none" stroke="#000000" stroke-width="6" stroke-linecap="round"/><path d="M1644.5,275.5c0,-6.62742 5.37258,-12 12,-12c6.62742,0 12,5.37258 12,12c0,6.62742 -5.37258,12 -12,12c-6.62742,0 -12,-5.37258 -12,-12z" fill="none" stroke="#000000" stroke-width="6" stroke-linecap="round"/><path d="M1254.5,344.5l-10,20l-20,-40l-20,40l-20,-40l-20,40l-10,-20" fill="none" stroke="#000000" stroke-width="6" stroke-linecap="round"/><path d="M1579.5,344.5l-325,0" fill="none" stroke="#000000" stroke-width="6" stroke-linecap="round"/><path d="M1154.5,344.5l-175,0" fill="none" stroke="#000000" stroke-width="6" stroke-linecap="round"/><path d="M979.5,344.5l0,-100" fill="none" stroke="#000000" stroke-width="6" stroke-linecap="round"/><path d="M1357.5,244.5c0,-22.09139 17.90861,-40 40,-40c22.09139,0 40,17.90861 40,40c0,22.09139 -17.90861,40 -40,40c-22.09139,0 -40,-17.90861 -40,-40z" fill="none" stroke="#000000" stroke-width="6" stroke-linecap="round"/><path d="M1357.5,244.5h80" fill="none" stroke="#000000" stroke-width="6" stroke-linecap="round"/><path d="M979.5,244.5h378" fill="none" stroke="#000000" stroke-width="6" stroke-linecap="round"/><path d="M1437.5,244.5h142" fill="none" stroke="#000000" stroke-width="6" stroke-linecap="round"/></g></g></svg>