<?xml version="1.0" encoding="UTF-8" standalone="no"?>
<svg
   xmlns:dc="http://purl.org/dc/elements/1.1/"
   xmlns:cc="http://creativecommons.org/ns#"
   xmlns:rdf="http://www.w3.org/1999/02/22-rdf-syntax-ns#"
   xmlns:svg="http://www.w3.org/2000/svg"
   xmlns="http://www.w3.org/2000/svg"
   xmlns:sodipodi="http://sodipodi.sourceforge.net/DTD/sodipodi-0.dtd"
   xmlns:inkscape="http://www.inkscape.org/namespaces/inkscape"
   width="100%"
   height="100%"
   viewBox="0 0 445 506"
   version="1.1"
   xml:space="preserve"
   style="fill-rule:evenodd;clip-rule:evenodd;stroke-linejoin:round;stroke-miterlimit:1.41421;"
   id="svg530"
   sodipodi:docname="OIO-spacestation2.svg"
   inkscape:version="1.0beta1 (fe3e306, 2019-09-17)"><metadata
   id="metadata536">
  <rdf:RDF>
    <cc:Work
   rdf:about="">
      <dc:format>image/svg+xml</dc:format>


      <dc:type
   rdf:resource="http://purl.org/dc/dcmitype/StillImage" />


      <dc:title></dc:title>


    </cc:Work>


  </rdf:RDF>


</metadata>


<defs
   id="defs534">
  
  

  
  
  
  
  
  
  
  

  
  

  

  

  

  

    
  
    
  
    
  
    
  </defs>


<sodipodi:namedview
   pagecolor="#ffffff"
   bordercolor="#666666"
   inkscape:document-rotation="0"
   borderopacity="1"
   objecttolerance="10"
   gridtolerance="10"
   guidetolerance="10"
   inkscape:pageopacity="0"
   inkscape:pageshadow="2"
   inkscape:window-width="1600"
   inkscape:window-height="1209"
   id="namedview532"
   showgrid="false"
   inkscape:snap-global="false"
   showguides="true"
   inkscape:guide-bbox="true"
   inkscape:zoom="1.4899611"
   inkscape:cx="187.24788"
   inkscape:cy="162.53271"
   inkscape:window-x="0"
   inkscape:window-y="23"
   inkscape:window-maximized="0"
   inkscape:current-layer="g528">
  <sodipodi:guide
   position="486.63954,550.23996"
   orientation="0,-1"
   id="guide1715" />


</sodipodi:namedview>



    <rect
   id="Artboard2"
   x="0"
   y="0"
   width="444.54"
   height="505.298"
   style="fill:none;" />



    <g
   id="g528">
        <path
   d="M 228.63477 44.115234 L 203.21875 58.501953 L 205.03711 69.193359 L 230.62109 55.166016 L 228.63477 44.115234 z M 230.875 56.572266 L 205.29688 70.724609 L 217.72656 143.82422 L 243.97656 129.43359 L 230.875 56.572266 z M 244.23047 130.83789 L 217.98633 145.35938 L 230.70312 220.15039 L 257.38672 204.00195 L 244.23047 130.83789 z M 130.37695 135.59766 C 125.95593 135.60237 122.03895 135.72042 120.37695 136.01367 C 115.04437 136.95437 102.34784 140.72078 90.361328 159.39844 L 99.873047 170.2207 L 118.0332 170.66406 C 121.46242 165.94097 125.77858 161.90283 131.23242 159.83398 C 138.29992 161.30036 143.81886 166.56533 147.77344 172.50977 L 157.05469 159.49023 L 177.20312 159.31445 C 165.1393 139.94684 156.70198 137.56339 148.56445 136.23242 C 146.51258 135.8968 137.74533 135.5898 130.37695 135.59766 z M 89.890625 160.13867 C 78.67676 177.96214 71.917655 198.62085 69.140625 225.25781 L 80.320312 228.23633 L 100.16992 228.07617 C 100.436 225.70762 100.72893 223.34167 101.06836 220.98242 C 103.04264 207.25982 106.41918 193.51926 112.17188 180.9082 C 113.46792 178.06699 115.00106 175.17453 116.79883 172.44531 L 99.011719 172.46484 L 89.890625 160.13867 z M 178.32227 161.16016 L 157.96484 161.33203 L 148.36719 173.4375 C 149.01874 174.46921 149.63038 175.51409 150.18945 176.56055 C 157.52098 192.36573 161.86267 209.38803 164.36133 226.62695 L 177.27734 222.10156 L 199.03125 222.26758 C 196.28534 203.97228 191.1604 184.78831 183.01367 169.44922 C 181.3853 166.38313 179.83177 163.66844 178.32227 161.16016 z M 340.73828 170.32812 C 339.94894 170.31472 339.13226 170.31617 338.30078 170.33008 C 332.75757 170.4228 326.57766 171.06594 323.76953 171.50781 C 317.98485 172.41888 310.31768 179.43591 304.98828 187.20117 L 311.30273 196.00586 L 324.35742 196.11914 C 328.47319 190.00837 332.74711 187.5375 333.89844 187.39453 C 335.09337 187.24545 339.95287 189.91885 344.48828 197.32812 L 350.24805 188.32031 C 350.24805 188.32031 350.52682 187.87927 350.7832 187.73828 C 351.0359 187.59937 351.58594 187.57617 351.58594 187.57617 L 367.20117 187.51953 C 367.14383 187.428 367.08891 187.33325 367.03125 187.24219 C 364.15225 182.69419 360.63195 178.86533 356.75195 175.98633 C 353.32795 173.44533 349.55061 171.62992 346.72461 170.91992 C 345.22414 170.54277 343.10629 170.36833 340.73828 170.32812 z M 304.52734 187.86914 C 303.22979 189.81993 302.08265 191.80806 301.16016 193.75 C 293.95537 208.9138 292.0836 219.28492 290.25391 234.10742 L 298.50195 236.16211 L 312.70703 236.07031 C 312.79061 235.29884 312.87028 234.49874 312.96094 233.77148 C 314.40194 222.19348 315.87844 216.46284 319.14844 206.83984 C 320.40594 203.13973 321.90543 200.07161 323.46094 197.5332 L 310.86133 197.22852 L 304.52734 187.86914 z M 367.95898 188.75391 L 351.73438 188.93164 C 351.73438 188.93164 351.47501 188.91191 351.35547 188.97461 C 351.25071 189.02953 351.125 189.22656 351.125 189.22656 L 344.90039 198.02344 C 346.15297 200.16107 347.37217 202.64757 348.4707 205.56836 C 352.19327 215.46676 354.9137 224.94762 356.31055 235.68945 L 366.46094 232.95117 L 382.41992 232.84375 C 379.98312 217.28975 375.32283 201.06986 367.95898 188.75391 z M 156.10352 199.10742 L 135.90234 238.20312 L 137.17188 241.2793 L 157.80273 204.14453 L 156.10352 199.10742 z M 105.76953 203.43555 L 103.82812 209.32617 L 119.73438 245.18555 L 121.1582 241.5957 L 105.76953 203.43555 z M 257.9043 206.87891 L 231.36914 222.73633 L 248.90039 250.41992 L 212.21289 249.56836 L 201.56055 249.03125 C 201.25807 243.17185 200.86306 237.69562 200.46484 233.70312 C 200.16781 230.72474 199.80055 227.68992 199.37305 224.62695 L 177.40039 224.44531 L 164.54688 227.94336 C 165.20491 232.66266 165.73612 237.3954 166.14453 242.12305 C 166.25219 244.29499 166.33615 246.47169 166.4043 248.65039 L 137.73828 247.2168 C 137.73828 247.2168 136.90198 244.48786 135.92578 241.90039 C 134.35607 237.7398 132.98146 237.79552 128.30859 237.38281 C 124.25326 237.02464 118.51227 247.2039 118.14062 257.56055 C 117.54623 274.12805 122.36149 281.30538 127.06836 281.81055 C 131.87479 282.32641 133.48638 280.62387 135.50781 277.73438 C 137.52925 274.84488 138.21289 270.73438 138.21289 270.73438 C 138.21289 270.73438 154.31652 269.95429 166.41016 268.29492 C 166.16697 275.95708 165.60522 283.6115 164.67383 291.21094 L 180.16211 293.33594 L 199.70508 293.50586 L 199.69531 294.40039 C 200.94783 286.49898 201.65583 279.92692 201.89258 275.95312 C 202.05494 273.22346 202.11395 271.47995 202.09375 267.85352 L 221.89258 266.7793 C 221.89258 266.7793 224.91081 266.17684 251.9707 265.27148 L 249.93164 309.07812 L 277.72461 292.25586 L 277.66602 291.95312 L 258.94141 264.50195 C 268.90041 264.18395 279.28306 263.30261 289.28906 262.97461 C 289.52206 268.29661 289.82697 273.46316 290.04297 275.16016 C 290.33176 277.42588 290.66411 279.67642 291.01953 281.91406 L 298.76953 279.24609 L 313.33984 279.06445 C 312.9357 276.19209 312.61234 273.31863 312.35547 270.4043 C 312.12947 267.8383 311.96733 265.28658 311.86133 262.76758 C 318.34133 262.54658 324.28667 262.33639 329.38867 262.15039 C 330.67467 262.10339 331.55273 262.03906 331.55273 262.03906 C 331.55273 262.03906 332.39325 263.46502 333.28125 264.54102 C 334.68025 266.23702 336.67366 266.31569 338.34766 264.05469 C 339.60366 262.35869 340.63641 259.62259 340.44141 256.80859 C 340.30441 254.83359 339.48816 252.58858 337.91016 250.76758 C 336.45416 249.08858 333.82028 248.64398 332.86328 250.20898 C 332.04528 251.54598 331.42578 252.65234 331.42578 252.65234 L 329.35352 252.59375 L 311.72852 252.13086 C 311.81385 246.78511 312.12472 241.80772 312.55859 237.42773 L 298.08398 237.42969 L 290.16211 234.81836 C 289.89685 236.98896 289.63087 239.25684 289.34766 241.65039 C 289.15166 243.30739 288.90922 247.0602 288.94922 251.5332 L 267.32031 250.9668 L 255.66602 250.62109 L 258.10352 207.98828 L 257.9043 206.87891 z M 316.99805 215.68359 L 316.78125 217.76172 L 331.91406 250.11523 L 332.46484 249.25 L 316.99805 215.68359 z M 351.92383 218.58789 L 338.72656 250.20703 L 339.32422 250.80469 L 352.41602 221 L 351.92383 218.58789 z M 69.042969 226.26953 C 68.034574 236.35949 67.584911 247.29551 67.679688 259.26172 C 67.777629 271.57502 68.430718 282.5514 69.617188 292.52539 L 80.083984 288.8418 L 100.0957 288.85938 C 98.291358 269.3047 97.922798 249.49705 99.960938 229.95508 L 80.117188 229.78711 L 69.042969 226.26953 z M 382.60742 234.00586 L 366.53711 234.18945 L 356.39648 236.39648 C 357.13065 242.31768 357.47164 248.62228 357.34766 255.60547 C 357.20856 263.425 357.1716 271.19738 356.12695 279.77344 L 368.67188 282.30273 L 383.17969 282.31055 C 384.50423 273.18674 384.85322 259.82507 384.22852 249.39453 C 383.93362 244.47539 383.3989 239.28625 382.60742 234.00586 z M 332.18555 264.88281 L 317.50977 294.5332 L 318.04492 296.29297 L 332.81055 265.75977 L 332.18555 264.88281 z M 338.64258 264.9707 L 338.19141 265.61719 L 350.49805 300.75391 L 351.48828 297.63281 L 338.64258 264.9707 z M 136.88477 279.33594 L 135.0293 281.43164 L 156.64062 323.97266 L 158.38281 317.94531 L 136.88477 279.33594 z M 120.69531 279.45898 L 106.91602 313.86328 L 107.97461 317.72461 L 122.15234 281.63867 L 120.69531 279.45898 z M 298.91016 280.53906 L 291.14844 282.67969 C 293.13959 294.92064 296.13876 306.54043 300.38281 315.6543 C 302.30561 319.7844 304.53033 323.50827 306.91797 326.7793 L 311.94141 317.20703 L 325.33984 316.94336 C 323.87922 314.51332 322.61887 311.84099 321.50586 309.125 C 317.24949 298.73913 314.94376 289.64083 313.56836 280.59766 L 298.91016 280.53906 z M 356.01758 280.61328 C 354.92783 289.07563 352.83912 298.33249 348.68359 309.20117 C 347.3622 312.65687 345.41331 315.81725 343.38477 318.43164 L 343.4707 318.41602 L 353.33398 327.07617 L 367.94336 327.07617 C 377.11971 313.4361 379.5279 302.24848 382.75 285.03125 C 382.86841 284.39845 382.96768 283.67231 383.07422 282.98242 L 382.86523 283.3418 L 368.39648 283.16016 L 356.01758 280.61328 z M 100.25977 290.4707 L 80.144531 290.5332 L 69.751953 293.57617 C 72.285634 314.05608 77.120957 330.25361 84.238281 344.80078 C 86.897272 350.23544 89.604756 355.02445 92.355469 359.23828 L 99.416016 345.8457 L 117.80078 345.79688 C 116.46407 343.77096 115.26118 341.67468 114.16992 339.61523 C 107.25958 324.02439 102.2194 307.45387 100.25977 290.4707 z M 164.52344 292.42383 C 162.68505 306.78695 159.48566 320.94197 154.43945 334.55859 C 152.39532 339.35483 149.92373 344.33288 146.73242 348.66406 L 157.53125 362.24609 L 177.18555 362.29297 C 180.41391 357.39139 183.0293 352.21549 185.08984 347.59375 C 192.41097 331.17415 196.96438 311.12762 199.47656 295.76172 L 179.53711 295.58008 L 164.52344 292.42383 z M 278.28125 295.11914 L 250.23828 311.87695 L 264.04883 380.68945 L 291.94336 365.39648 L 278.28125 295.11914 z M 326.03906 318.06055 L 312.79102 318.2207 L 307.27539 327.25781 C 313.74313 335.93287 321.3806 341.21427 327.73047 341.57812 C 330.76547 341.75212 347.20555 341.86177 349.56055 341.00977 C 356.54455 338.48177 361.04827 336.63489 365.57227 330.46289 C 366.12658 329.70668 366.64337 328.96595 367.15625 328.22656 L 352.26367 328.07422 L 342.95117 318.98242 C 339.4924 323.28431 335.91296 325.94041 334.88477 325.61914 C 333.37077 325.14614 330.29002 323.85519 327.29102 319.86719 C 326.85612 319.28925 326.44279 318.68165 326.03906 318.06055 z M 100.27539 347.29297 L 93.089844 360.38086 C 102.14363 373.85482 111.69281 380.81546 121.74609 381.5918 C 128.53309 382.1158 147.12164 381.9833 151.43164 381.4043 C 161.88915 380.00099 169.86389 372.73142 175.85938 364.24219 L 156.10742 364.0332 L 146.0332 349.58008 C 142.82062 353.70597 138.90727 357.16415 133.99609 359.16602 C 127.59213 357.41852 122.71928 352.76786 118.88867 347.38477 L 100.27539 347.29297 z M 292.21094 366.7832 L 264.35156 382.20117 L 278.36328 452.01953 L 305.85156 436.95117 L 292.21094 366.7832 z M 306.12109 438.33984 L 278.66797 453.53125 L 281.0293 465.30078 L 308.44141 450.2793 L 306.12109 438.33984 z "
   style="fill-rule:nonzero;fill:#000000;fill-opacity:1"
   id="path526" />






    































</g>



</svg>
