<?xml version="1.0" encoding="UTF-8" standalone="no"?><!DOCTYPE svg PUBLIC "-//W3C//DTD SVG 1.1//EN" "http://www.w3.org/Graphics/SVG/1.1/DTD/svg11.dtd"><svg width="100%" height="100%" viewBox="0 0 1111 1111" version="1.1" xmlns="http://www.w3.org/2000/svg" xmlns:xlink="http://www.w3.org/1999/xlink" xml:space="preserve" xmlns:serif="http://www.serif.com/" style="fill-rule:evenodd;clip-rule:evenodd;stroke-linejoin:round;stroke-miterlimit:1.41421;"><rect id="Artboard1" x="0" y="0" width="1111" height="1111" style="fill:none;"/><clipPath id="_clip1"><rect x="0" y="0" width="1111" height="1111"/></clipPath><g clip-path="url(#_clip1)"><rect x="-410" y="-150" width="1622.28" height="1112.3" style="fill:url(#_Radial2);"/><ellipse cx="-60" cy="2558.23" rx="2369.33" ry="2289.88" style="fill:url(#_Radial3);"/><path d="M-52.341,268.345l1.914,0.002l1.914,0.003l1.913,0.004l1.913,0.006l1.913,0.008l1.912,0.009l1.912,0.01l1.911,0.012l1.912,0.013l1.91,0.015l1.911,0.016l1.91,0.018l1.91,0.019l1.909,0.021l1.909,0.022l1.909,0.023l1.908,0.025l1.908,0.027l1.908,0.028l1.907,0.029l1.907,0.031l1.907,0.032l1.906,0.034l1.906,0.035l1.905,0.037l1.905,0.038l1.905,0.039l1.905,0.041l1.904,0.043l1.903,0.044l1.904,0.045l1.903,0.047l1.902,0.048l1.902,0.05l1.902,0.051l1.902,0.052l1.901,0.054l1.901,0.056l1.9,0.057l1.9,0.058l1.9,0.06l1.899,0.061l1.899,0.063l1.898,0.064l1.898,0.066l1.898,0.067l1.898,0.068l1.897,0.07l1.896,0.072l1.897,0.072l1.896,0.075l1.895,0.075l1.895,0.077l1.895,0.079l1.894,0.08l1.895,0.081l1.893,0.083l1.893,0.084l1.893,0.086l1.893,0.087l1.892,0.089l1.892,0.09l1.891,0.091l1.891,0.093l1.891,0.095l1.89,0.095l1.89,0.098l1.889,0.098l1.889,0.1l1.889,0.102l1.888,0.103l1.888,0.104l1.888,0.106l1.887,0.107l1.887,0.109l1.886,0.11l1.886,0.111l1.885,0.113l1.886,0.114l1.884,0.116l1.885,0.117l1.884,0.119l1.883,0.12l1.884,0.121l1.882,0.123l1.883,0.124l1.882,0.126l1.882,0.127l1.881,0.129l1.881,0.13l1.88,0.131l1.88,0.133l1.88,0.134l1.879,0.136l1.879,0.137l1.878,0.138l1.878,0.14l1.878,0.141l1.877,0.143l1.877,0.144l1.876,0.146l1.877,0.146l1.875,0.149l1.875,0.15l1.875,0.151l1.875,0.152l1.874,0.154l1.873,0.156l1.873,0.156l1.873,0.159l1.872,0.159l1.872,0.161l1.872,0.163l1.871,0.163l1.871,0.166l1.87,0.166l1.87,0.168l1.869,0.17l1.87,0.171l1.868,0.172l1.868,0.173l1.868,0.176l1.868,0.176l1.867,0.178l1.866,0.179l1.866,0.181l1.866,0.182l1.865,0.183l1.865,0.185l1.865,0.186l1.864,0.188l1.863,0.189l1.864,0.19l1.862,0.192l1.863,0.193l1.862,0.195l1.861,0.196l1.861,0.197l1.861,0.199l1.86,0.2l1.86,0.202l1.859,0.203l1.859,0.204l1.859,0.206l1.858,0.207l1.858,0.208l1.857,0.21l1.857,0.212l1.856,0.212l1.856,0.214l1.856,0.216l1.855,0.216l1.854,0.219l1.854,0.219l1.854,0.221l1.854,0.223l1.853,0.223l1.852,0.225l1.852,0.227l1.852,0.228l1.851,0.229l1.85,0.231l1.851,0.232l1.85,0.233l1.849,0.235l1.849,0.236l1.848,0.237l1.849,0.239l1.847,0.241l1.847,0.241l1.847,0.243l1.846,0.245l1.846,0.245l1.846,0.247l1.845,0.249l1.844,0.25l1.844,0.251l1.844,0.253l1.843,0.254l1.843,0.255l1.842,0.257l1.842,0.258l1.841,0.259l1.841,0.261l1.841,0.262l1.84,0.264l1.839,0.265l1.839,0.266l1.839,0.268l1.838,0.269l1.838,0.27l1.837,0.272l1.837,0.273l1.836,0.275l1.836,0.275l1.836,0.278l1.835,0.278l1.834,0.28l1.834,0.281l1.834,0.283l1.833,0.284l1.833,0.285l1.832,0.287l1.832,0.288l1.831,0.289l1.831,0.291l1.83,0.292l1.83,0.294l1.83,0.295l1.829,0.296l1.828,0.297l1.828,0.299l1.828,0.3l1.827,0.302l1.827,0.303l1.826,0.304l1.825,0.306l1.826,0.307l1.824,0.308l1.825,0.31l1.824,0.311l1.823,0.312l1.823,0.314l1.822,0.315l1.822,0.317l1.822,0.317l1.821,0.319l1.82,0.321l1.82,0.322l1.82,0.323l1.819,0.324l1.818,0.326l1.818,0.327l1.818,0.329l1.817,0.329l1.817,0.332l1.816,0.332l1.816,0.334l1.815,0.335l1.815,0.337l1.814,0.338l1.814,0.339l1.813,0.34l1.813,0.342l1.812,0.343l1.812,0.345l1.811,0.346l1.811,0.347l1.81,0.348l1.81,0.35l1.81,0.351l1.808,0.353l1.809,0.354l1.808,0.355l1.807,0.356l1.807,0.358l1.806,0.359l1.806,0.361l1.806,0.362l1.805,0.363l1.804,0.364l1.804,0.366l1.804,0.367l1.803,0.369l1.802,0.369l1.802,0.371l1.801,0.373l1.801,0.374l1.801,0.375l1.8,0.376l1.799,0.378l1.799,0.379l1.799,0.38l1.798,0.382l1.797,0.383l1.797,0.384l1.796,0.385l1.796,0.387l1.796,0.389l1.795,0.389l1.794,0.391l1.794,0.392l1.793,0.394l1.793,0.394l1.793,0.396l1.792,0.398l1.791,0.399l1.791,0.4l1.79,0.401l1.79,0.403l1.789,0.404l1.789,0.405l1.788,0.406l1.788,0.408l1.787,0.41l1.787,0.41l1.786,0.412l1.786,0.413l1.785,0.414l1.785,0.416l1.784,0.417l1.784,0.418l1.783,0.42l1.782,0.421l1.782,0.422l1.782,0.424l1.781,0.425l1.781,0.426l1.78,0.427l1.779,0.429l1.779,0.43l1.778,0.431l1.778,0.433l1.778,0.434l1.776,0.435l1.777,0.436l1.776,0.438l1.775,0.439l1.775,0.441l1.774,0.441l1.773,0.443l1.774,0.445l1.772,0.445l1.772,0.447l1.772,0.448l1.771,0.45l1.77,0.45l1.77,0.452l1.77,0.454l1.768,0.454l1.769,0.456l1.768,0.457l1.767,0.459l1.767,0.459l1.766,0.461l1.765,0.463l1.765,0.463l1.765,0.465l1.764,0.466l1.764,0.468l1.762,0.468l1.763,0.47l1.762,0.472l1.761,0.472l1.761,0.474l1.76,0.475l1.76,0.477l1.759,0.477l1.758,0.479l1.759,0.48l1.757,0.482l1.757,0.483l1.756,0.484l1.756,0.485l1.756,0.487l1.754,0.488l1.755,0.489l1.753,0.49l1.753,0.492l1.753,0.493l1.752,0.494l1.751,0.496l1.751,0.496l1.75,0.498l1.75,0.5l1.749,0.5l1.749,0.502l1.748,0.503l1.748,0.505l1.747,0.505l1.746,0.507l1.746,0.508l1.745,0.51l1.745,0.51l1.744,0.512l1.744,0.514l1.743,0.514l1.743,0.516l1.742,0.517l1.741,0.518l1.741,0.52l1.74,0.52l1.74,0.522l1.739,0.524l1.738,0.524l1.738,0.526l1.738,0.527l1.737,0.529l1.736,0.529l1.736,0.531l1.735,0.532l1.734,0.533l1.734,0.535l1.734,0.536l1.733,0.537l1.732,0.538l1.732,0.54l1.731,0.541l1.73,0.542l1.73,0.543l1.73,0.545l1.729,0.546l1.728,0.547l1.727,0.548l1.728,0.55l1.726,0.551l1.726,0.552l1.725,0.553l1.725,0.555l1.724,0.556l1.724,0.557l1.723,0.558l1.722,0.56l1.722,0.56l1.722,0.562l1.72,0.564l1.72,0.564l1.72,0.566l1.719,0.567l1.718,0.568l1.718,0.57l1.717,0.57l1.717,0.572l1.716,0.574l1.715,0.574l1.715,0.576l1.714,0.577l0.257,0.086l1.455,0.499l1.71,0.588l1.709,0.589l1.709,0.59l1.708,0.592l1.708,0.592l1.707,0.594l1.707,0.596l1.706,0.596l1.705,0.598l1.705,0.599l1.704,0.6l1.703,0.601l1.703,0.603l1.702,0.603l1.702,0.605l1.701,0.606l1.7,0.608l1.7,0.609l1.699,0.609l1.699,0.611l1.698,0.613l1.697,0.613l1.697,0.615l1.696,0.616l1.695,0.617l1.695,0.619l1.695,0.619l1.693,0.621l1.693,0.622l1.693,0.623l1.691,0.625l1.691,0.625l1.691,0.627l1.69,0.628l1.689,0.63l1.689,0.63l1.688,0.632l1.687,0.633l1.687,0.634l1.686,0.635l1.686,0.637l1.684,0.637l1.685,0.639l1.683,0.64l1.683,0.642l1.683,0.642l1.681,0.644l1.681,0.645l1.681,0.646l1.68,0.648l1.679,0.648l1.679,0.65l1.677,0.651l1.678,0.652l1.676,0.653l1.676,0.655l1.676,0.656l1.675,0.657l1.674,0.658l1.673,0.659l1.673,0.661l1.672,0.661l1.672,0.663l1.671,0.664l1.67,0.666l1.67,0.666l1.669,0.668l1.668,0.669l1.668,0.67l1.667,0.671l1.666,0.673l1.666,0.673l1.665,0.675l1.665,0.676l1.664,0.677l1.663,0.679l1.662,0.679l1.662,0.681l1.662,0.682l1.66,0.683l1.66,0.685l1.659,0.685l1.659,0.687l1.658,0.688l1.657,0.689l1.657,0.69l1.656,0.691l1.656,0.693l1.654,0.694l1.654,0.695l1.654,0.696l1.653,0.697l1.652,0.699l1.651,0.699l1.651,0.701l1.65,0.702l1.65,0.703l1.648,0.705l1.649,0.705l1.647,0.707l1.647,0.708l1.646,0.709l1.646,0.71l1.645,0.712l1.644,0.712l1.643,0.714l1.643,0.715l1.642,0.716l1.642,0.717l1.641,0.719l1.64,0.719l1.639,0.721l1.639,0.722l1.639,0.723l1.637,0.724l1.637,0.726l1.636,0.726l1.636,0.728l1.634,0.729l1.635,0.73l1.633,0.731l1.633,0.733l1.632,0.733l1.632,0.735l1.63,0.736l1.631,0.737l1.629,0.738l1.629,0.739l1.628,0.741l1.627,0.742l1.627,0.742l1.626,0.744l1.626,0.745l1.624,0.747l1.624,0.747l1.624,0.749l1.622,0.75l1.622,0.75l1.622,0.753l1.62,0.753l1.62,0.754l1.619,0.756l1.619,0.756l1.618,0.758l1.617,0.759l1.617,0.76l1.615,0.761l1.616,0.763l1.614,0.763l1.614,0.765l1.613,0.766l1.612,0.767l1.612,0.768l1.611,0.769l1.61,0.77l1.61,0.772l1.609,0.773l1.608,0.774l1.607,0.775l1.607,0.776l1.606,0.777l1.606,0.778l1.605,0.78l1.604,0.78l1.603,0.782l1.603,0.783l1.602,0.784l1.601,0.785l1.601,0.787l1.599,0.787l1.6,0.789l1.598,0.79l1.598,0.791l1.597,0.792l1.596,0.793l1.596,0.794l1.595,0.795l1.594,0.797l1.594,0.798l1.592,0.798l1.592,0.8l1.592,0.801l1.591,0.803l1.59,0.803l1.589,0.804l1.588,0.806l1.588,0.806l1.588,0.808l1.586,0.809l1.586,0.81l1.585,0.811l1.584,0.813l1.584,0.813l1.583,0.815l1.582,0.815l1.581,0.817l1.581,0.818l1.58,0.819l1.579,0.82l1.579,0.821l1.578,0.823l1.577,0.823l1.576,0.825l1.576,0.826l1.575,0.826l1.574,0.828l1.574,0.83l1.573,0.83l1.572,0.831l1.571,0.832l1.571,0.834l1.57,0.835l1.569,0.835l1.569,0.837l1.567,0.838l1.567,0.839l1.567,0.84l1.565,0.842l1.565,0.842l1.564,0.843l1.564,0.845l1.562,0.846l1.562,0.847l1.561,0.848l1.561,0.849l1.56,0.85l1.559,0.851l1.558,0.852l1.558,0.854l1.556,0.854l1.556,0.856l1.556,0.857l1.554,0.857l1.554,0.859l1.553,0.86l1.553,0.861l1.323,0.736l0.229,0.127l1.551,0.862l1.55,0.864l1.55,0.865l1.549,0.866l1.549,0.867l1.547,0.868l1.547,0.869l1.546,0.871l1.546,0.871l1.544,0.872l1.544,0.874l1.543,0.875l1.543,0.876l1.541,0.876l1.541,0.878l1.54,0.879l1.54,0.881l1.538,0.881l1.538,0.882l1.537,0.883l1.537,0.885l1.536,0.886l1.534,0.886l1.535,0.888l1.533,0.889l1.533,0.89l1.532,0.891l1.531,0.892l1.53,0.893l1.53,0.894l1.529,0.895l1.528,0.897l1.527,0.897l1.527,0.899l1.526,0.9l1.525,0.9l1.524,0.902l1.524,0.903l1.523,0.904l1.522,0.905l1.521,0.906l1.521,0.907l1.519,0.908l1.519,0.91l1.519,0.91l1.517,0.912l1.517,0.912l1.516,0.914l1.515,0.914l1.515,0.916l1.513,0.917l1.513,0.918l1.512,0.919l1.512,0.92l1.51,0.921l1.51,0.922l1.509,0.923l1.509,0.924l1.507,0.926l1.507,0.926l1.506,0.928l1.505,0.928l1.505,0.93l1.503,0.931l1.503,0.931l1.502,0.933l1.502,0.934l1.5,0.935l1.5,0.936l1.499,0.937l1.498,0.938l1.498,0.939l1.496,0.94l1.496,0.942l1.495,0.942l1.495,0.943l1.493,0.945l1.493,0.945l1.492,0.947l1.491,0.947l1.491,0.949l1.489,0.95l1.489,0.95l1.488,0.952l1.488,0.953l1.486,0.954l1.486,0.955l1.485,0.956l1.484,0.957l1.483,0.958l1.483,0.959l1.482,0.96l1.481,0.961l1.48,0.963l1.479,0.963l1.479,0.964l1.478,0.966l1.477,0.966l1.476,0.968l1.476,0.968l1.474,0.97l1.474,0.971l1.473,0.971l1.472,0.973l1.472,0.974l1.471,0.974l1.47,0.976l1.469,0.977l1.468,0.978l1.467,0.979l1.467,0.98l1.466,0.981l1.465,0.982l1.464,0.983l1.464,0.984l1.462,0.985l1.462,0.987l1.461,0.987l1.461,0.988l1.459,0.989l1.459,0.991l1.458,0.991l1.457,0.992l1.456,0.994l1.455,0.994l1.455,0.996l1.454,0.996l1.453,0.998l1.452,0.998l1.451,1l1.451,1l1.45,1.002l1.449,1.002l1.448,1.004l1.447,1.005l1.446,1.005l1.446,1.007l1.445,1.008l1.444,1.009l1.443,1.009l1.443,1.011l1.441,1.012l1.441,1.013l1.44,1.014l1.439,1.015l1.439,1.016l1.437,1.016l1.437,1.018l1.436,1.019l1.435,1.02l1.434,1.021l1.433,1.022l1.433,1.023l1.432,1.024l1.431,1.025l1.43,1.026l1.429,1.027l1.428,1.028l1.428,1.029l1.427,1.03l1.426,1.032l1.425,1.032l1.424,1.033l1.424,1.034l1.422,1.035l1.422,1.036l1.421,1.037l1.42,1.038l1.419,1.039l1.419,1.041l1.418,1.041l1.416,1.042l1.416,1.043l1.416,1.044l1.414,1.045l1.413,1.046l1.413,1.047l1.412,1.049l1.411,1.049l1.41,1.05l1.409,1.051l1.409,1.052l1.407,1.053l1.407,1.054l1.406,1.055l1.405,1.057l1.404,1.057l1.403,1.058l1.403,1.059l1.402,1.06l1.401,1.061l1.4,1.062l1.399,1.063l1.398,1.064l1.397,1.065l1.397,1.066l1.396,1.067l1.395,1.068l1.394,1.069l1.393,1.07l1.392,1.071l1.392,1.072l1.391,1.073l1.389,1.074l1.389,1.075l1.388,1.076l1.388,1.077l1.386,1.078l0.191,0.149l1.195,0.929l1.386,1.078l1.384,1.08l1.384,1.081l1.383,1.082l1.382,1.083l1.381,1.083l1.38,1.085l1.38,1.086l1.378,1.086l1.378,1.088l1.377,1.089l1.376,1.089l1.375,1.091l1.374,1.091l1.374,1.093l1.372,1.094l1.372,1.094l1.371,1.095l1.37,1.097l1.369,1.097l1.368,1.099l1.367,1.099l1.367,1.1l1.365,1.102l1.365,1.102l1.364,1.103l1.363,1.104l1.362,1.106l1.361,1.106l1.361,1.107l1.359,1.108l1.359,1.109l1.358,1.11l1.357,1.111l1.356,1.112l1.355,1.113l1.354,1.113l1.354,1.115l1.352,1.116l1.352,1.117l1.351,1.117l1.349,1.119l1.349,1.12l1.349,1.12l1.347,1.122l1.346,1.122l1.346,1.124l1.344,1.124l1.344,1.125l1.343,1.127l1.342,1.127l1.341,1.128l1.34,1.129l1.34,1.131l1.338,1.131l1.338,1.132l1.336,1.133l1.336,1.134l1.335,1.134l1.334,1.136l1.333,1.137l1.332,1.138l1.332,1.138l1.33,1.14l1.33,1.141l1.328,1.141l1.328,1.143l1.327,1.143l1.326,1.144l1.325,1.146l1.324,1.146l1.323,1.147l1.323,1.148l1.321,1.149l1.321,1.15l1.32,1.151l1.318,1.152l1.318,1.153l1.317,1.154l1.317,1.154l1.315,1.156l1.314,1.157l1.313,1.157l1.313,1.159l1.312,1.159l1.31,1.16l1.31,1.162l1.309,1.162l1.308,1.163l1.307,1.164l1.306,1.165l1.306,1.166l1.304,1.167l1.303,1.168l1.303,1.168l1.302,1.17l1.3,1.171l1.3,1.171l1.299,1.173l1.298,1.173l1.297,1.174l1.296,1.176l1.296,1.176l1.294,1.177l1.293,1.178l1.293,1.179l1.292,1.18l1.29,1.18l1.29,1.182l1.289,1.183l1.288,1.183l1.287,1.185l1.286,1.185l1.285,1.186l0.123,0.114l1.162,1.073l1.284,1.187l1.284,1.188l1.282,1.189l1.281,1.19l1.281,1.191l1.279,1.192l1.279,1.193l1.278,1.194l1.276,1.194l1.276,1.196l1.275,1.196l1.274,1.198l1.273,1.198l1.272,1.199l1.272,1.2l1.27,1.201l1.269,1.202l1.269,1.203l1.267,1.204l1.267,1.205l1.265,1.205l1.265,1.207l1.264,1.207l1.263,1.208l1.262,1.21l1.261,1.21l1.26,1.211l1.259,1.212l1.258,1.212l1.257,1.214l1.257,1.215l1.255,1.215l1.255,1.217l1.253,1.217l1.253,1.218l1.251,1.219l1.251,1.22l1.25,1.221l1.249,1.222l1.247,1.223l1.247,1.224l1.246,1.224l1.245,1.226l1.244,1.226l1.244,1.227l1.242,1.228l1.241,1.229l1.24,1.23l1.24,1.231l1.238,1.232l1.238,1.232l1.236,1.234l1.236,1.234l1.234,1.235l1.234,1.237l1.233,1.237l1.232,1.237l1.231,1.239l1.229,1.24l1.229,1.241l1.228,1.241l1.227,1.242l1.226,1.244l1.226,1.244l1.224,1.245l1.223,1.246l1.222,1.247l1.221,1.247l1.221,1.249l1.219,1.249l1.219,1.251l1.217,1.251l1.217,1.252l1.215,1.253l1.215,1.254l1.213,1.254l1.213,1.256l1.212,1.256l1.21,1.258l1.21,1.258l1.209,1.259l1.208,1.26l1.207,1.261l1.206,1.262l1.205,1.262l1.204,1.264l1.203,1.264l1.202,1.265l1.201,1.266l1.2,1.267l1.199,1.268l1.198,1.269l1.197,1.27l1.196,1.27l1.196,1.271l1.194,1.272l1.193,1.273l1.193,1.274l1.191,1.275l1.19,1.276l1.19,1.276l1.188,1.278l1.188,1.278l1.186,1.279l1.186,1.28l1.184,1.281l1.184,1.282l1.182,1.282l1.182,1.283l1.18,1.285l1.18,1.285l1.179,1.286l1.177,1.287l1.177,1.287l1.176,1.289l1.174,1.289l0.701,0.77l0.473,0.52l1.174,1.291l1.172,1.291l1.171,1.293l1.171,1.293l1.169,1.294l1.169,1.294l1.167,1.296l1.167,1.297l1.165,1.297l1.165,1.298l1.163,1.299l1.163,1.3l1.161,1.301l1.161,1.302l1.159,1.302l1.159,1.303l1.157,1.305l1.157,1.305l1.155,1.305l1.155,1.307l1.154,1.308l1.152,1.308l1.152,1.309l1.15,1.31l1.15,1.311l1.148,1.312l1.148,1.313l1.147,1.313l1.145,1.315l1.145,1.315l1.143,1.316l1.143,1.316l1.142,1.318l1.14,1.319l1.14,1.319l1.138,1.32l1.138,1.321l1.136,1.322l1.136,1.323l1.134,1.323l1.134,1.324l1.132,1.326l1.132,1.326l1.13,1.327l1.13,1.327l1.128,1.329l1.128,1.329l1.126,1.33l1.126,1.331l1.124,1.332l1.124,1.333l1.122,1.333l1.122,1.335l1.12,1.335l1.119,1.336l1.119,1.336l1.117,1.338l1.116,1.339l1.116,1.339l1.114,1.34l1.113,1.341l1.112,1.342l1.112,1.342l1.11,1.344l1.109,1.344l1.108,1.345l1.107,1.346l1.107,1.346l1.105,1.348l1.104,1.348l1.103,1.349l1.102,1.35l1.101,1.351l1.1,1.351l1.099,1.353l1.098,1.353l1.097,1.354l1.095,1.355l1.095,1.356l1.094,1.356l1.093,1.357l1.092,1.358l1.09,1.359l1.09,1.36l1.089,1.361l1.087,1.361l1.087,1.362l1.085,1.363l1.085,1.364l1.083,1.364l1.083,1.366l1.081,1.366l1.081,1.367l1.079,1.368l1.078,1.368l1.078,1.37l1.076,1.37l1.075,1.371l1.074,1.372l1.073,1.372l1.072,1.374l1.071,1.374l1.07,1.375l1.069,1.376l1.068,1.376l1.067,1.378l1.066,1.378l1.064,1.379l1.064,1.38l1.063,1.38l1.061,1.382l1.061,1.382l1.059,1.383l1.059,1.384l1.057,1.384l1.057,1.386l1.055,1.386l1.054,1.387l1.054,1.387l1.052,1.389l1.051,1.389l1.05,1.39l1.049,1.391l1.048,1.392l1.047,1.392l1.046,1.394l1.044,1.394l1.044,1.395l1.043,1.395l1.041,1.397l1.041,1.397l1.039,1.398l1.039,1.399l1.037,1.399l1.037,1.4l1.035,1.402l1.034,1.401l1.033,1.403l1.032,1.404l1.031,1.404l1.03,1.405l1.029,1.406l1.028,1.406l1.027,1.408l1.025,1.408l1.025,1.409l1.023,1.409l1.023,1.411l1.021,1.411l1.021,1.412l1.019,1.413l1.018,1.413l1.017,1.415l1.016,1.415l1.015,1.416l1.014,1.416l1.013,1.418l1.012,1.418l1.01,1.419l1.01,1.419l1.009,1.421l1.007,1.421l1.006,1.422l1.006,1.423l1.004,1.424l1.003,1.424l1.002,1.425l1.001,1.426l1,1.426l0.999,1.428l0.998,1.428l0.996,1.429l0.996,1.43l0.994,1.43l0.994,1.431l0.992,1.432l0.991,1.433l0.99,1.433l0.99,1.434l0.988,1.435l0.986,1.436l0.986,1.437l0.985,1.437l0.984,1.438l0.982,1.439l0.982,1.439l0.98,1.44l0.979,1.442l0.978,1.441l0.978,1.443l0.976,1.443l0.974,1.444l0.974,1.445l0.973,1.445l0.972,1.447l0.97,1.447l0.97,1.448l0.968,1.448l0.967,1.449l0.966,1.45l0.965,1.451l0.964,1.452l0.963,1.452l0.962,1.453l0.961,1.454l0.959,1.454l0.959,1.455l0.957,1.456l0.956,1.457l0.955,1.458l0.954,1.458l0.953,1.459l0.952,1.459l0.951,1.461l0.949,1.461l0.949,1.462l0.947,1.463l0.947,1.463l0.945,1.464l0.944,1.465l0.943,1.465l0.942,1.467l0.94,1.467l0.94,1.468l0.938,1.468l0.938,1.469l0.936,1.47l0.935,1.471l0.934,1.472l0.933,1.472l0.932,1.473l0.931,1.473l0.929,1.475l0.929,1.475l0.927,1.476l0.927,1.476l0.925,1.477l0.924,1.478l0.923,1.479l0.921,1.48l0.921,1.48l0.92,1.481l0.918,1.481l0.917,1.483l0.916,1.483l0.915,1.483l0.914,1.485l0.913,1.485l0.912,1.486l0.91,1.487l0.91,1.487l0.908,1.488l0.907,1.489l0.906,1.49l0.905,1.49l0.904,1.491l0.902,1.492l0.902,1.492l0.9,1.493l0.899,1.494l0.899,1.494l0.897,1.496l0.895,1.496l0.895,1.496l0.894,1.498l0.892,1.498l0.891,1.499l0.891,1.499l0.889,1.5l0.887,1.501l0.887,1.502l0.886,1.502l0.884,1.503l0.884,1.504l0.882,1.505l-0.883,-1.505l-0.883,-1.503l-0.885,-1.503l-0.885,-1.503l-0.887,-1.501l-0.888,-1.501l-0.89,-1.5l-0.89,-1.5l-0.891,-1.498l-0.893,-1.498l-0.894,-1.498l-0.894,-1.496l-0.896,-1.496l-0.898,-1.495l-0.898,-1.495l-0.899,-1.493l-0.901,-1.493l-0.901,-1.493l-0.903,-1.491l-0.904,-1.491l-0.905,-1.49l-0.906,-1.49l-0.908,-1.489l-0.908,-1.488l-0.909,-1.487l-0.911,-1.486l-0.912,-1.486l-0.913,-1.485l-0.914,-1.485l-0.915,-1.484l-0.916,-1.483l-0.918,-1.482l-0.918,-1.481l-0.92,-1.481l-0.921,-1.48l-0.922,-1.48l-0.923,-1.478l-0.924,-1.478l-0.925,-1.477l-0.927,-1.477l-0.927,-1.475l-0.929,-1.475l-0.929,-1.475l-0.931,-1.473l-0.932,-1.473l-0.933,-1.472l-0.935,-1.471l-0.935,-1.471l-0.936,-1.47l-0.938,-1.469l-0.939,-1.469l-0.939,-1.467l-0.941,-1.467l-0.942,-1.466l-0.943,-1.466l-0.945,-1.465l-0.945,-1.464l-0.946,-1.463l-0.948,-1.462l-0.948,-1.462l-0.95,-1.461l-0.951,-1.461l-0.952,-1.459l-0.953,-1.459l-0.954,-1.458l-0.956,-1.458l-0.956,-1.456l-0.957,-1.456l-0.959,-1.455l-0.96,-1.455l-0.96,-1.453l-0.962,-1.453l-0.963,-1.452l-0.964,-1.452l-0.966,-1.45l-0.966,-1.45l-0.967,-1.449l-0.969,-1.449l-0.969,-1.448l-0.971,-1.446l-0.972,-1.447l-0.973,-1.445l-0.974,-1.445l-0.975,-1.444l-0.976,-1.443l-0.977,-1.442l-0.978,-1.442l-0.98,-1.441l-0.98,-1.44l-0.982,-1.439l-0.983,-1.439l-0.983,-1.438l-0.985,-1.437l-0.986,-1.437l-0.987,-1.435l-0.988,-1.435l-0.989,-1.434l-0.991,-1.433l-0.991,-1.433l-0.993,-1.432l-0.993,-1.431l-0.995,-1.43l-0.996,-1.43l-0.996,-1.429l-0.998,-1.428l-0.999,-1.427l-1,-1.426l-1.001,-1.426l-1.003,-1.425l-1.003,-1.424l-1.004,-1.424l-1.006,-1.422l-1.006,-1.422l-1.008,-1.422l-1.008,-1.42l-1.01,-1.42l-1.011,-1.418l-1.012,-1.418l-1.013,-1.418l-1.014,-1.416l-1.015,-1.416l-1.016,-1.415l-1.017,-1.414l-1.019,-1.414l-1.019,-1.412l-1.021,-1.412l-1.021,-1.411l-1.023,-1.411l-1.023,-1.409l-1.025,-1.409l-1.026,-1.408l-1.027,-1.407l-1.028,-1.407l-1.029,-1.405l-1.03,-1.405l-1.031,-1.404l-1.032,-1.404l-1.033,-1.402l-1.035,-1.402l-1.035,-1.401l-1.037,-1.4l-1.037,-1.4l-1.039,-1.398l-1.039,-1.398l-1.041,-1.397l-1.042,-1.397l-1.043,-1.395l-1.043,-1.395l-1.045,-1.394l-1.046,-1.393l-1.047,-1.392l-1.048,-1.392l-1.049,-1.391l-1.051,-1.39l-1.051,-1.389l-1.052,-1.388l-1.054,-1.388l-1.054,-1.387l-1.055,-1.386l-1.057,-1.385l-1.057,-1.384l-1.059,-1.384l-1.06,-1.383l-1.06,-1.382l-1.062,-1.381l-1.063,-1.381l-1.064,-1.379l-1.065,-1.379l-1.066,-1.378l-1.066,-1.378l-1.068,-1.376l-1.07,-1.376l-1.07,-1.375l-1.071,-1.374l-1.072,-1.373l-1.073,-1.372l-1.074,-1.372l-1.076,-1.371l-1.076,-1.37l-1.077,-1.369l-1.079,-1.369l-1.079,-1.367l-1.081,-1.367l-1.081,-1.366l-1.083,-1.366l-1.084,-1.364l-1.084,-1.364l-1.086,-1.362l-1.087,-1.362l-1.087,-1.362l-1.089,-1.36l-1.09,-1.36l-1.091,-1.358l-1.092,-1.358l-1.093,-1.358l-1.093,-1.356l-1.095,-1.355l-1.096,-1.355l-1.097,-1.354l-1.098,-1.353l-1.1,-1.352l-1.1,-1.352l-1.101,-1.35l-1.102,-1.35l-1.103,-1.349l-1.104,-1.348l-1.105,-1.348l-1.107,-1.346l-1.107,-1.346l-1.108,-1.345l-1.11,-1.344l-1.11,-1.343l-1.111,-1.343l-1.113,-1.341l-1.113,-1.341l-1.114,-1.34l-1.116,-1.339l-1.116,-1.338l-1.118,-1.338l-1.118,-1.337l-1.12,-1.335l-1.12,-1.335l-1.122,-1.335l-1.122,-1.333l-1.124,-1.333l-1.124,-1.331l-1.126,-1.331l-1.126,-1.33l-1.128,-1.329l-1.129,-1.329l-1.129,-1.327l-1.131,-1.327l-1.132,-1.326l-1.132,-1.325l-1.134,-1.324l-1.134,-1.323l-1.136,-1.323l-1.137,-1.322l-1.137,-1.321l-1.139,-1.32l-1.14,-1.319l-1.14,-1.318l-1.142,-1.318l-1.143,-1.316l-1.144,-1.316l-1.144,-1.315l-1.146,-1.314l-1.147,-1.314l-1.147,-1.312l-1.149,-1.312l-1.15,-1.311l-1.15,-1.31l-1.152,-1.309l-1.153,-1.308l-1.153,-1.307l-1.155,-1.307l-1.156,-1.306l-1.156,-1.304l-1.158,-1.304l-1.159,-1.304l-1.159,-1.302l-1.161,-1.301l-1.162,-1.301l-1.162,-1.3l-1.164,-1.299l-1.164,-1.298l-1.166,-1.297l-1.167,-1.297l-1.167,-1.295l-1.169,-1.295l-1.169,-1.294l-1.171,-1.292l-1.171,-1.293l-1.173,-1.291l-1.173,-1.29l-0.474,-0.52l-0.701,-0.769l-1.176,-1.289l-1.177,-1.287l-1.178,-1.286l-1.179,-1.286l-1.18,-1.284l-1.181,-1.284l-1.182,-1.283l-1.183,-1.282l-1.184,-1.281l-1.185,-1.281l-1.186,-1.279l-1.187,-1.279l-1.188,-1.277l-1.189,-1.277l-1.189,-1.276l-1.191,-1.275l-1.192,-1.275l-1.193,-1.273l-1.193,-1.273l-1.195,-1.271l-1.196,-1.271l-1.196,-1.27l-1.198,-1.269l-1.198,-1.268l-1.2,-1.268l-1.2,-1.266l-1.202,-1.266l-1.202,-1.265l-1.204,-1.263l-1.204,-1.263l-1.205,-1.262l-1.207,-1.262l-1.207,-1.26l-1.208,-1.259l-1.209,-1.259l-1.21,-1.258l-1.211,-1.257l-1.213,-1.255l-1.213,-1.256l-1.214,-1.254l-1.214,-1.253l-1.216,-1.252l-1.217,-1.252l-1.218,-1.251l-1.219,-1.249l-1.22,-1.249l-1.22,-1.248l-1.222,-1.248l-1.222,-1.246l-1.224,-1.245l-1.225,-1.245l-1.225,-1.243l-1.226,-1.243l-1.228,-1.242l-1.228,-1.241l-1.229,-1.24l-1.231,-1.239l-1.231,-1.238l-1.232,-1.237l-1.233,-1.237l-1.234,-1.236l-1.235,-1.234l-1.236,-1.234l-1.237,-1.233l-1.237,-1.232l-1.239,-1.231l-1.24,-1.23l-1.241,-1.23l-1.241,-1.228l-1.243,-1.228l-1.243,-1.226l-1.245,-1.226l-1.245,-1.225l-1.246,-1.224l-1.247,-1.223l-1.249,-1.222l-1.249,-1.221l-1.25,-1.221l-1.251,-1.219l-1.252,-1.219l-1.253,-1.217l-1.253,-1.217l-1.255,-1.216l-1.256,-1.215l-1.256,-1.214l-1.258,-1.213l-1.258,-1.212l-1.26,-1.212l-1.26,-1.21l-1.262,-1.21l-1.262,-1.208l-1.263,-1.208l-1.264,-1.207l-1.265,-1.206l-1.266,-1.204l-1.267,-1.205l-1.268,-1.203l-1.268,-1.202l-1.27,-1.201l-1.27,-1.201l-1.272,-1.199l-1.272,-1.199l-1.274,-1.197l-1.274,-1.197l-1.275,-1.196l-1.276,-1.195l-1.277,-1.194l-1.278,-1.193l-1.279,-1.192l-1.28,-1.191l-1.281,-1.191l-1.281,-1.189l-1.283,-1.189l-1.283,-1.187l-1.285,-1.187l-1.285,-1.186l-1.163,-1.071l-0.123,-0.113l-1.288,-1.183l-1.289,-1.182l-1.29,-1.182l-1.29,-1.18l-1.292,-1.179l-1.293,-1.179l-1.293,-1.177l-1.294,-1.177l-1.296,-1.175l-1.296,-1.175l-1.297,-1.174l-1.298,-1.172l-1.299,-1.172l-1.299,-1.171l-1.301,-1.17l-1.302,-1.169l-1.302,-1.169l-1.303,-1.167l-1.305,-1.166l-1.305,-1.166l-1.306,-1.164l-1.307,-1.164l-1.308,-1.162l-1.309,-1.162l-1.309,-1.16l-1.311,-1.16l-1.312,-1.159l-1.312,-1.158l-1.313,-1.157l-1.315,-1.156l-1.315,-1.155l-1.316,-1.154l-1.317,-1.153l-1.317,-1.152l-1.319,-1.152l-1.32,-1.15l-1.32,-1.149l-1.321,-1.149l-1.323,-1.147l-1.323,-1.147l-1.324,-1.146l-1.325,-1.144l-1.326,-1.144l-1.326,-1.143l-1.328,-1.142l-1.329,-1.141l-1.329,-1.14l-1.33,-1.139l-1.331,-1.138l-1.332,-1.137l-1.333,-1.136l-1.334,-1.135l-1.335,-1.134l-1.336,-1.134l-1.336,-1.132l-1.337,-1.131l-1.339,-1.131l-1.339,-1.129l-1.34,-1.129l-1.341,-1.127l-1.341,-1.127l-1.343,-1.125l-1.344,-1.125l-1.344,-1.124l-1.345,-1.123l-1.346,-1.121l-1.347,-1.121l-1.348,-1.12l-1.349,-1.119l-1.35,-1.118l-1.35,-1.117l-1.352,-1.116l-1.352,-1.115l-1.353,-1.114l-1.354,-1.113l-1.355,-1.113l-1.356,-1.111l-1.357,-1.11l-1.357,-1.109l-1.359,-1.109l-1.359,-1.107l-1.36,-1.107l-1.361,-1.105l-1.362,-1.104l-1.363,-1.104l-1.363,-1.102l-1.365,-1.102l-1.365,-1.1l-1.366,-1.1l-1.367,-1.099l-1.368,-1.097l-1.369,-1.097l-1.369,-1.096l-1.371,-1.094l-1.371,-1.094l-1.373,-1.093l-1.373,-1.092l-1.374,-1.091l-1.374,-1.089l-1.376,-1.089l-1.377,-1.088l-1.377,-1.087l-1.378,-1.086l-1.379,-1.085l-1.38,-1.084l-1.381,-1.083l-1.382,-1.082l-1.382,-1.081l-1.384,-1.08l-1.384,-1.079l-1.385,-1.078l-1.386,-1.077l-1.386,-1.076l-1.388,-1.075l-1.197,-0.926l-0.192,-0.148l-1.39,-1.073l-1.391,-1.071l-1.391,-1.07l-1.393,-1.069l-1.393,-1.068l-1.395,-1.068l-1.395,-1.066l-1.396,-1.065l-1.397,-1.064l-1.397,-1.064l-1.399,-1.062l-1.399,-1.061l-1.4,-1.06l-1.401,-1.06l-1.402,-1.058l-1.403,-1.057l-1.404,-1.057l-1.404,-1.055l-1.405,-1.054l-1.406,-1.053l-1.407,-1.053l-1.408,-1.051l-1.408,-1.05l-1.41,-1.05l-1.41,-1.048l-1.411,-1.047l-1.412,-1.046l-1.413,-1.046l-1.413,-1.044l-1.415,-1.043l-1.415,-1.043l-1.416,-1.041l-1.417,-1.04l-1.418,-1.039l-1.418,-1.039l-1.42,-1.037l-1.42,-1.036l-1.421,-1.035l-1.422,-1.035l-1.422,-1.033l-1.424,-1.032l-1.424,-1.031l-1.425,-1.03l-1.426,-1.03l-1.427,-1.028l-1.428,-1.027l-1.428,-1.026l-1.429,-1.025l-1.43,-1.024l-1.431,-1.023l-1.432,-1.022l-1.433,-1.022l-1.433,-1.02l-1.434,-1.019l-1.435,-1.018l-1.436,-1.017l-1.436,-1.016l-1.438,-1.015l-1.438,-1.013l-1.439,-1.013l-1.44,-1.012l-1.441,-1.011l-1.441,-1.01l-1.443,-1.009l-1.443,-1.008l-1.444,-1.006l-1.444,-1.006l-1.446,-1.005l-1.446,-1.004l-1.447,-1.002l-1.448,-1.002l-1.449,-1.001l-1.45,-0.999l-1.45,-0.999l-1.451,-0.997l-1.452,-0.997l-1.453,-0.995l-1.454,-0.995l-1.454,-0.993l-1.455,-0.993l-1.456,-0.991l-1.457,-0.99l-1.458,-0.99l-1.458,-0.988l-1.46,-0.987l-1.46,-0.986l-1.46,-0.986l-1.462,-0.984l-1.462,-0.983l-1.464,-0.982l-1.464,-0.981l-1.464,-0.98l-1.466,-0.979l-1.466,-0.978l-1.468,-0.977l-1.468,-0.975l-1.468,-0.975l-1.47,-0.974l-1.47,-0.973l-1.471,-0.971l-1.472,-0.971l-1.473,-0.97l-1.473,-0.968l-1.475,-0.968l-1.475,-0.966l-1.476,-0.965l-1.476,-0.965l-1.478,-0.963l-1.478,-0.962l-1.479,-0.962l-1.48,-0.96l-1.48,-0.959l-1.482,-0.958l-1.482,-0.957l-1.483,-0.956l-1.484,-0.955l-1.484,-0.954l-1.485,-0.952l-1.486,-0.952l-1.487,-0.951l-1.488,-0.95l-1.488,-0.948l-1.49,-0.948l-1.489,-0.946l-1.491,-0.946l-1.492,-0.944l-1.492,-0.943l-1.493,-0.943l-1.494,-0.941l-1.494,-0.94l-1.496,-0.939l-1.496,-0.938l-1.497,-0.937l-1.498,-0.936l-1.498,-0.935l-1.499,-0.934l-1.5,-0.932l-1.501,-0.932l-1.502,-0.931l-1.502,-0.929l-1.503,-0.929l-1.504,-0.927l-1.504,-0.926l-1.506,-0.926l-1.506,-0.924l-1.507,-0.923l-1.507,-0.922l-1.509,-0.921l-1.509,-0.92l-1.51,-0.919l-1.511,-0.918l-1.511,-0.916l-1.512,-0.916l-1.513,-0.915l-1.514,-0.913l-1.515,-0.913l-1.515,-0.911l-1.516,-0.91l-1.517,-0.909l-1.517,-0.909l-1.519,-0.907l-1.519,-0.906l-1.52,-0.905l-1.52,-0.903l-1.521,-0.903l-1.522,-0.902l-1.523,-0.9l-1.524,-0.9l-1.524,-0.898l-1.525,-0.898l-1.526,-0.896l-1.527,-0.895l-1.527,-0.894l-1.528,-0.893l-1.529,-0.892l-1.529,-0.891l-1.531,-0.89l-1.531,-0.889l-1.532,-0.887l-1.532,-0.887l-1.534,-0.885l-1.534,-0.885l-1.534,-0.883l-1.536,-0.882l-1.536,-0.881l-1.537,-0.88l-1.538,-0.879l-1.538,-0.878l-1.54,-0.877l-1.54,-0.875l-1.54,-0.875l-1.542,-0.873l-1.542,-0.873l-1.543,-0.871l-1.544,-0.87l-1.544,-0.869l-1.545,-0.868l-1.546,-0.867l-1.547,-0.866l-1.547,-0.865l-1.548,-0.863l-1.549,-0.863l-1.549,-0.861l-1.551,-0.861l-1.551,-0.859l-1.551,-0.858l-1.553,-0.857l-1.553,-0.856l-0.228,-0.126l-1.326,-0.728l-1.555,-0.853l-1.556,-0.852l-1.556,-0.851l-1.557,-0.85l-1.558,-0.848l-1.559,-0.848l-1.559,-0.846l-1.56,-0.845l-1.561,-0.845l-1.562,-0.843l-1.562,-0.842l-1.563,-0.841l-1.564,-0.839l-1.564,-0.839l-1.565,-0.838l-1.566,-0.836l-1.567,-0.835l-1.567,-0.835l-1.568,-0.833l-1.569,-0.832l-1.569,-0.831l-1.57,-0.829l-1.571,-0.829l-1.572,-0.827l-1.572,-0.827l-1.573,-0.825l-1.573,-0.824l-1.575,-0.823l-1.575,-0.822l-1.576,-0.821l-1.576,-0.82l-1.578,-0.818l-1.578,-0.818l-1.578,-0.816l-1.58,-0.816l-1.58,-0.814l-1.581,-0.813l-1.581,-0.811l-1.582,-0.811l-1.583,-0.81l-1.584,-0.808l-1.584,-0.808l-1.585,-0.806l-1.586,-0.805l-1.586,-0.804l-1.587,-0.803l-1.588,-0.802l-1.589,-0.8l-1.589,-0.8l-1.59,-0.798l-1.59,-0.797l-1.592,-0.796l-1.592,-0.795l-1.592,-0.794l-1.594,-0.793l-1.594,-0.791l-1.595,-0.791l-1.595,-0.789l-1.596,-0.788l-1.597,-0.787l-1.598,-0.786l-1.598,-0.785l-1.599,-0.783l-1.6,-0.783l-1.6,-0.781l-1.601,-0.78l-1.602,-0.779l-1.602,-0.778l-1.603,-0.777l-1.604,-0.776l-1.605,-0.774l-1.605,-0.774l-1.606,-0.772l-1.606,-0.771l-1.607,-0.77l-1.608,-0.769l-1.609,-0.767l-1.609,-0.767l-1.61,-0.765l-1.611,-0.764l-1.611,-0.763l-1.612,-0.762l-1.612,-0.761l-1.614,-0.76l-1.614,-0.758l-1.615,-0.757l-1.615,-0.757l-1.616,-0.755l-1.617,-0.754l-1.617,-0.752l-1.618,-0.752l-1.619,-0.75l-1.619,-0.75l-1.62,-0.748l-1.621,-0.747l-1.622,-0.745l-1.622,-0.745l-1.623,-0.744l-1.623,-0.742l-1.624,-0.741l-1.625,-0.74l-1.625,-0.739l-1.627,-0.738l-1.626,-0.736l-1.628,-0.736l-1.628,-0.734l-1.629,-0.733l-1.629,-0.732l-1.63,-0.73l-1.631,-0.73l-1.632,-0.728l-1.632,-0.728l-1.633,-0.726l-1.633,-0.725l-1.634,-0.724l-1.635,-0.722l-1.635,-0.722l-1.636,-0.72l-1.637,-0.719l-1.638,-0.718l-1.638,-0.717l-1.638,-0.715l-1.64,-0.715l-1.64,-0.713l-1.64,-0.712l-1.642,-0.711l-1.642,-0.71l-1.643,-0.708l-1.643,-0.708l-1.644,-0.706l-1.644,-0.705l-1.646,-0.704l-1.646,-0.702l-1.646,-0.702l-1.647,-0.7l-1.648,-0.699l-1.649,-0.698l-1.649,-0.697l-1.65,-0.696l-1.65,-0.694l-1.651,-0.694l-1.652,-0.692l-1.653,-0.691l-1.653,-0.689l-1.653,-0.689l-1.655,-0.687l-1.655,-0.687l-1.655,-0.685l-1.656,-0.683l-1.657,-0.683l-1.658,-0.682l-1.658,-0.68l-1.659,-0.679l-1.659,-0.678l-1.66,-0.677l-1.661,-0.675l-1.662,-0.674l-1.662,-0.674l-1.662,-0.672l-1.664,-0.67l-1.663,-0.67l-1.665,-0.668l-1.665,-0.668l-1.666,-0.666l-1.667,-0.664l-1.667,-0.664l-1.667,-0.662l-1.669,-0.662l-1.669,-0.66l-1.669,-0.659l-1.671,-0.657l-1.67,-0.657l-1.672,-0.655l-1.672,-0.654l-1.673,-0.653l-1.673,-0.652l-1.674,-0.65l-1.675,-0.649l-1.675,-0.648l-1.676,-0.647l-1.676,-0.646l-1.678,-0.645l-1.677,-0.643l-1.679,-0.642l-1.679,-0.641l-1.679,-0.639l-1.681,-0.639l-1.68,-0.637l-1.682,-0.636l-1.682,-0.635l-1.683,-0.634l-1.683,-0.632l-1.684,-0.631l-1.685,-0.63l-1.685,-0.629l-1.686,-0.628l-1.686,-0.626l-1.687,-0.625l-1.688,-0.624l-1.688,-0.623l-1.689,-0.622l-1.689,-0.62l-1.69,-0.619l-1.691,-0.618l-1.691,-0.617l-1.692,-0.615l-1.693,-0.614l-1.693,-0.613l-1.694,-0.612l-1.694,-0.611l-1.695,-0.609l-1.695,-0.609l-1.697,-0.606l-1.696,-0.606l-1.698,-0.605l-1.698,-0.603l-1.698,-0.602l-1.699,-0.601l-1.7,-0.6l-1.701,-0.598l-1.701,-0.597l-1.701,-0.596l-1.702,-0.595l-1.703,-0.594l-1.704,-0.592l-1.704,-0.591l-1.704,-0.59l-1.705,-0.588l-1.706,-0.588l-1.706,-0.586l-1.707,-0.585l-1.708,-0.584l-1.708,-0.582l-1.709,-0.581l-1.709,-0.58l-1.71,-0.579l-1.454,-0.491l-0.256,-0.088l-1.708,-0.585l-1.709,-0.584l-1.71,-0.582l-1.71,-0.581l-1.71,-0.58l-1.712,-0.579l-1.712,-0.577l-1.712,-0.576l-1.713,-0.575l-1.714,-0.574l-1.714,-0.573l-1.715,-0.571l-1.715,-0.57l-1.716,-0.569l-1.717,-0.567l-1.717,-0.567l-1.718,-0.565l-1.718,-0.564l-1.719,-0.562l-1.72,-0.562l-1.72,-0.56l-1.721,-0.559l-1.721,-0.558l-1.722,-0.556l-1.723,-0.555l-1.723,-0.554l-1.724,-0.553l-1.724,-0.552l-1.725,-0.55l-1.725,-0.549l-1.726,-0.548l-1.727,-0.546l-1.727,-0.545l-1.728,-0.544l-1.729,-0.543l-1.729,-0.542l-1.729,-0.54l-1.73,-0.539l-1.731,-0.538l-1.731,-0.536l-1.732,-0.536l-1.733,-0.534l-1.733,-0.533l-1.734,-0.531l-1.734,-0.53l-1.735,-0.529l-1.735,-0.528l-1.736,-0.527l-1.736,-0.525l-1.738,-0.524l-1.737,-0.523l-1.739,-0.521l-1.738,-0.521l-1.74,-0.519l-1.74,-0.517l-1.74,-0.517l-1.742,-0.515l-1.741,-0.514l-1.742,-0.513l-1.743,-0.511l-1.744,-0.511l-1.744,-0.509l-1.744,-0.507l-1.745,-0.507l-1.746,-0.505l-1.746,-0.504l-1.747,-0.502l-1.748,-0.502l-1.747,-0.5l-1.749,-0.499l-1.749,-0.497l-1.75,-0.497l-1.75,-0.495l-1.751,-0.493l-1.751,-0.493l-1.752,-0.491l-1.752,-0.49l-1.753,-0.489l-1.754,-0.487l-1.754,-0.486l-1.755,-0.485l-1.755,-0.484l-1.756,-0.482l-1.756,-0.481l-1.757,-0.48l-1.758,-0.479l-1.758,-0.477l-1.758,-0.476l-1.759,-0.475l-1.76,-0.473l-1.76,-0.472l-1.761,-0.471l-1.761,-0.47l-1.762,-0.468l-1.763,-0.467l-1.763,-0.466l-1.763,-0.464l-1.764,-0.463l-1.765,-0.462l-1.765,-0.461l-1.766,-0.459l-1.766,-0.458l-1.767,-0.457l-1.767,-0.456l-1.768,-0.454l-1.769,-0.453l-1.769,-0.451l-1.769,-0.451l-1.77,-0.449l-1.771,-0.448l-1.771,-0.446l-1.772,-0.445l-1.772,-0.444l-1.773,-0.443l-1.773,-0.441l-1.774,-0.44l-1.775,-0.439l-1.775,-0.437l-1.775,-0.437l-1.776,-0.434l-1.777,-0.434l-1.777,-0.432l-1.777,-0.431l-1.779,-0.43l-1.778,-0.428l-1.78,-0.428l-1.779,-0.425l-1.781,-0.425l-1.78,-0.423l-1.782,-0.422l-1.782,-0.421l-1.782,-0.419l-1.783,-0.418l-1.783,-0.417l-1.784,-0.415l-1.785,-0.414l-1.785,-0.413l-1.786,-0.411l-1.786,-0.411l-1.786,-0.409l-1.788,-0.407l-1.787,-0.406l-1.788,-0.405l-1.789,-0.404l-1.789,-0.403l-1.79,-0.401l-1.79,-0.399l-1.791,-0.399l-1.792,-0.397l-1.791,-0.396l-1.793,-0.394l-1.793,-0.393l-1.793,-0.392l-1.794,-0.391l-1.794,-0.389l-1.795,-0.388l-1.796,-0.387l-1.796,-0.385l-1.796,-0.384l-1.797,-0.383l-1.798,-0.381l-1.798,-0.38l-1.798,-0.379l-1.8,-0.378l-1.799,-0.376l-1.8,-0.374l-1.801,-0.374l-1.801,-0.372l-1.802,-0.371l-1.802,-0.369l-1.802,-0.369l-1.803,-0.367l-1.804,-0.365l-1.804,-0.364l-1.805,-0.363l-1.805,-0.362l-1.806,-0.36l-1.806,-0.359l-1.806,-0.358l-1.808,-0.356l-1.807,-0.355l-1.808,-0.353l-1.809,-0.353l-1.809,-0.351l-1.81,-0.349l-1.81,-0.349l-1.811,-0.347l-1.811,-0.345l-1.812,-0.345l-1.812,-0.343l-1.812,-0.341l-1.814,-0.341l-1.813,-0.339l-1.814,-0.337l-1.815,-0.337l-1.815,-0.335l-1.816,-0.333l-1.816,-0.333l-1.816,-0.331l-1.818,-0.329l-1.817,-0.328l-1.818,-0.327l-1.819,-0.326l-1.819,-0.324l-1.819,-0.323l-1.82,-0.322l-1.821,-0.32l-1.821,-0.319l-1.821,-0.318l-1.822,-0.316l-1.823,-0.315l-1.823,-0.313l-1.823,-0.312l-1.824,-0.311l-1.825,-0.31l-1.824,-0.308l-1.826,-0.307l-1.826,-0.305l-1.826,-0.304l-1.827,-0.303l-1.827,-0.302l-1.828,-0.3l-1.828,-0.298l-1.829,-0.298l-1.829,-0.296l-1.83,-0.294l-1.83,-0.294l-1.83,-0.292l-1.831,-0.29l-1.832,-0.29l-1.832,-0.287l-1.832,-0.287l-1.833,-0.285l-1.834,-0.284l-1.834,-0.282l-1.834,-0.282l-1.835,-0.279l-1.835,-0.279l-1.836,-0.277l-1.837,-0.275l-1.836,-0.275l-1.837,-0.273l-1.838,-0.271l-1.838,-0.271l-1.839,-0.268l-1.839,-0.268l-1.839,-0.266l-1.84,-0.265l-1.841,-0.263l-1.841,-0.262l-1.841,-0.261l-1.842,-0.259l-1.842,-0.258l-1.843,-0.257l-1.843,-0.255l-1.844,-0.254l-1.844,-0.252l-1.845,-0.252l-1.845,-0.249l-1.845,-0.249l-1.846,-0.247l-1.847,-0.245l-1.847,-0.245l-1.847,-0.242l-1.848,-0.242l-1.848,-0.24l-1.849,-0.239l-1.849,-0.237l-1.85,-0.236l-1.85,-0.235l-1.85,-0.233l-1.851,-0.232l-1.852,-0.23l-1.851,-0.23l-1.853,-0.227l-1.853,-0.227l-1.853,-0.225l-1.853,-0.223l-1.854,-0.222l-1.855,-0.221l-1.855,-0.22l-1.855,-0.218l-1.856,-0.216l-1.857,-0.216l-1.856,-0.214l-1.858,-0.212l-1.857,-0.211l-1.858,-0.21l-1.859,-0.208l-1.859,-0.207l-1.859,-0.206l-1.86,-0.204l-1.86,-0.203l-1.861,-0.201l-1.861,-0.201l-1.862,-0.198l-1.862,-0.197l-1.862,-0.196l-1.863,-0.195l-1.864,-0.193l-1.863,-0.191l-1.865,-0.191l-1.864,-0.189l-1.865,-0.187l-1.866,-0.186l-1.866,-0.185l-1.866,-0.183l-1.867,-0.182l-1.867,-0.181l-1.868,-0.179l-1.868,-0.178l-1.868,-0.176l-1.869,-0.175l-1.87,-0.173l-1.869,-0.172l-1.871,-0.171l-1.87,-0.169l-1.871,-0.168l-1.872,-0.167l-1.872,-0.165l-1.872,-0.164l-1.873,-0.162l-1.873,-0.161l-1.874,-0.159l-1.874,-0.158l-1.874,-0.157l-1.875,-0.155l-1.875,-0.154l-1.876,-0.152l-1.876,-0.151l-1.877,-0.15l-1.876,-0.148l-1.878,-0.147l-1.878,-0.145l-1.878,-0.144l-1.878,-0.143l-1.879,-0.141l-1.88,-0.14l-1.88,-0.138l-1.88,-0.137l-1.881,-0.135l-1.881,-0.134l-1.881,-0.133l-1.882,-0.131l-1.882,-0.13l-1.883,-0.128l-1.883,-0.127l-1.884,-0.126l-1.884,-0.124l-1.884,-0.123l-1.885,-0.121l-1.885,-0.12l-1.885,-0.118l-1.886,-0.117l-1.887,-0.116l-1.887,-0.114l-1.887,-0.113l-1.887,-0.111l-1.888,-0.11l-1.889,-0.108l-1.888,-0.107l-1.89,-0.106l-1.889,-0.104l-1.89,-0.103l-1.89,-0.101l-1.891,-0.1l-1.891,-0.099l-1.892,-0.097l-1.892,-0.095l-1.892,-0.094l-1.893,-0.093l-1.893,-0.091l-1.894,-0.09l-1.893,-0.089l-1.895,-0.087l-1.894,-0.085l-1.896,-0.084l-1.895,-0.083l-1.896,-0.081l-1.896,-0.08l-1.897,-0.079l-1.897,-0.076l-1.897,-0.076l-1.898,-0.074l-1.898,-0.073l-1.899,-0.071l-1.899,-0.069l-1.899,-0.069l-1.9,-0.067l-1.9,-0.065l-1.901,-0.064l-1.9,-0.062l-1.902,-0.062l-1.901,-0.059l-1.902,-0.058l-1.903,-0.057l-1.903,-0.055l-1.903,-0.054l-1.903,-0.053l-1.904,-0.05l-1.904,-0.05l-1.905,-0.048l-1.905,-0.047l-1.906,-0.045l-1.905,-0.043l-1.907,-0.043l-1.906,-0.04l-1.907,-0.04l-1.907,-0.038l-1.908,-0.036l-1.908,-0.035l-1.908,-0.033l-1.909,-0.032l-1.909,-0.031l-1.91,-0.029l-1.91,-0.028l-1.91,-0.026l-1.911,-0.025l-1.911,-0.023l-1.911,-0.022l-1.912,-0.02l-1.912,-0.019l-1.912,-0.018l-1.913,-0.016l-1.913,-0.014l-1.914,-0.013l-1.914,-0.012l-1.914,-0.01l-1.915,-0.009l-1.915,-0.007l-1.915,-0.006l1.915,-0.004l1.915,-0.003l1.915,-0.001l1.914,0Z" style="fill:#fffdfc;"/><path id="Artboard2" d="M1045.47,92.276l-444.53,2.976l3.383,505.287l444.53,-2.976l-3.383,-505.287Z" style="fill:none;"/><path d="M851.516,344.002l-18.028,-28.05l-28.938,-163.558l25.305,-16.627l31.995,171.25l-3.568,37.14l11.657,0.267l21.631,0.422c-0.07,-4.472 0.148,-8.228 0.333,-9.886c2.141,-19.191 3.241,-30.31 11.491,-47.978c4.653,-9.965 15.071,-21.177 22.46,-22.392c4.488,-0.737 17.607,-2.048 22.95,-0.743c2.831,0.692 6.62,2.482 10.061,5c3.899,2.853 7.447,6.659 10.356,11.187c10.786,16.785 16.258,41.71 17.613,62.036c0.766,11.499 0.384,26.63 -1.241,35.646c-3.36,18.645 -5.797,30.223 -16.872,45.546c-4.483,6.202 -8.974,8.078 -15.941,10.653c-2.349,0.867 -18.79,0.868 -21.826,0.715c-8.83,-0.447 -20.226,-10.344 -27.521,-25.742c-5.18,-10.932 -8.607,-25.491 -10.612,-40.423c-0.227,-1.696 -0.562,-6.313 -0.83,-11.633c-10.004,0.395 -20.385,0.799 -30.341,1.184l18.908,27.325l31.835,158.116l-27.311,15.206l-32.926,-162.568l2.525,-37.81c-27.159,1.043 -49.515,1.878 -49.515,1.878l-0.683,-17.239l47.033,1.078Zm-129.287,-113.545c4.426,-0.811 24.902,-0.485 28.189,0.03c9.395,1.472 19.189,4.303 34.669,32.986c9.992,18.514 15.598,42.702 17.881,64.135c1.117,10.49 2.291,31.24 1.711,42.24c-0.623,11.787 -5.116,46.159 -16.322,71.751c-5.883,13.434 -16.27,31.615 -33.431,34.035c-4.306,0.608 -22.893,0.865 -29.683,0.387c-13.397,-0.945 -25.974,-12.864 -37.755,-36.539c-10.827,-21.759 -16.571,-47.21 -17.131,-85.427c-0.648,-44.313 6.189,-74.659 21.738,-99.581c11.94,-19.138 24.766,-23.033 30.134,-24.017Zm11.379,19.406c-2.471,0.032 -16,13.632 -21.081,29.647c-8.129,25.616 -11.021,38.376 -11.119,72.221c-0.115,40.241 5.819,55.742 12.201,73.586c8.327,23.282 21.501,31.548 23.359,31.355c2.411,-0.251 15.176,-10.347 22.442,-32.907c8.047,-24.983 10.047,-49.329 9.861,-74.926c-0.19,-26.372 -7.167,-56.524 -15.556,-75.166c-7.238,-16.085 -18.223,-23.836 -20.107,-23.81Zm180.95,106.063c0.123,2.518 0.302,5.07 0.545,7.634c1.195,12.598 3.465,24.427 9.409,38.659c1.607,3.848 3.501,7.616 5.857,10.703c3.026,3.968 6.52,6.814 8.037,7.277c1.68,0.512 9.689,-8.493 13.284,-18.087c8.38,-22.366 8.13,-37.91 8.305,-53.653c0.221,-19.996 -3.264,-34.473 -9.213,-49.976c-5.268,-13.727 -13.144,-20.252 -14.705,-20.047c-1.674,0.219 -9.909,7.38 -14.608,21.515c-3.205,9.645 -4.643,15.386 -6.006,26.973c-0.609,5.162 -1.046,11.476 -1.11,18.368l17.627,0.344l2.074,0.044c0,0 0.611,-1.109 1.42,-2.452c0.947,-1.571 3.585,-1.146 5.052,0.524c1.59,1.81 2.42,4.05 2.57,6.024c0.214,2.812 -0.8,5.556 -2.045,7.26c-1.659,2.273 -3.651,2.207 -5.062,0.52c-0.895,-1.07 -1.746,-2.489 -1.746,-2.489c0,0 -0.878,0.07 -2.164,0.125c-5.1,0.221 -11.043,0.469 -17.521,0.734Zm-151.367,6.416c-10.567,0.457 -22.633,0.744 -22.633,0.744c0,0 -0.834,1.349 -2.105,3.494c-1.755,2.962 -5.78,4.559 -8.241,4.296c-5.628,-0.6 -9.864,-5.104 -9.406,-18.86c0.346,-10.358 3.861,-20.963 11.382,-20.835c2.642,0.044 5.1,1.456 5.997,3.603c1.771,4.244 2.149,6.759 2.149,6.759l22.713,1.329c0.658,7.613 0.243,13.854 0.144,19.47Z" style="fill-rule:nonzero;"/><g><g transform="matrix(1.10502,0,0,1.10502,-1013.09,423.865)"><text x="1064.35px" y="230.215px" style="font-family:'AvenirNext-Italic', 'Avenir Next', sans-serif;font-style:italic;font-size:96px;fill:#fff;">O<tspan x="1143.94px 1199.14px 1254.34px " y="230.215px 230.215px 230.215px ">PEN</tspan></text><text x="1044.44px" y="326.215px" style="font-family:'AvenirNext-Italic', 'Avenir Next', sans-serif;font-style:italic;font-size:96px;fill:#fff;">I<tspan x="1071.8px 1146.2px 1201.4px 1261.31px " y="326.215px 326.215px 326.215px 326.215px ">NFRA</tspan></text><text x="1024.53px" y="422.215px" style="font-family:'AvenirNext-Italic', 'Avenir Next', sans-serif;font-style:italic;font-size:96px;fill:#fff;">S<tspan x="1079.64px " y="422.215px ">T</tspan></text><text x="1133.11px" y="422.215px" style="font-family:'AvenirNext-Italic', 'Avenir Next', sans-serif;font-style:italic;font-size:96px;fill:#fff;">R</text><text x="1190.61px" y="422.215px" style="font-family:'AvenirNext-Italic', 'Avenir Next', sans-serif;font-style:italic;font-size:96px;fill:#fff;">U</text><text x="1255.89px" y="422.215px" style="font-family:'AvenirNext-Italic', 'Avenir Next', sans-serif;font-style:italic;font-size:96px;fill:#fff;">C</text><text x="1326.93px" y="422.215px" style="font-family:'AvenirNext-Italic', 'Avenir Next', sans-serif;font-style:italic;font-size:96px;fill:#fff;">T<tspan x="1380.41px 1449.53px 1507.99px " y="422.215px 422.215px 422.215px ">URE</tspan></text><text x="1268.72px" y="518.215px" style="font-family:'AvenirNext-Italic', 'Avenir Next', sans-serif;font-style:italic;font-size:96px;fill:#fff;">O</text><text x="1345.9px" y="518.215px" style="font-family:'AvenirNext-Italic', 'Avenir Next', sans-serif;font-style:italic;font-size:96px;fill:#fff;">R<tspan x="1404.85px 1465.81px 1492.21px " y="518.215px 518.215px 518.215px ">BIT</tspan></text></g></g></g><defs><radialGradient id="_Radial2" cx="0" cy="0" r="1" gradientUnits="userSpaceOnUse" gradientTransform="matrix(-882.537,1131.73,-1430.52,-715.654,592.958,375.264)"><stop offset="0" style="stop-color:#eee4db;stop-opacity:1"/><stop offset="0.17" style="stop-color:#827d78;stop-opacity:1"/><stop offset="0.36" style="stop-color:#242321;stop-opacity:1"/><stop offset="1" style="stop-color:#000;stop-opacity:1"/></radialGradient><radialGradient id="_Radial3" cx="0" cy="0" r="1" gradientUnits="userSpaceOnUse" gradientTransform="matrix(-718.301,2186.67,-2550.14,-837.698,588.892,349.975)"><stop offset="0" style="stop-color:#eee4db;stop-opacity:1"/><stop offset="0.02" style="stop-color:#82adac;stop-opacity:1"/><stop offset="0.04" style="stop-color:#247d83;stop-opacity:1"/><stop offset="0.11" style="stop-color:#006a73;stop-opacity:1"/><stop offset="0.28" style="stop-color:#003f44;stop-opacity:1"/><stop offset="0.47" style="stop-color:#001415;stop-opacity:1"/><stop offset="1" style="stop-color:#000;stop-opacity:1"/></radialGradient></defs></svg>